<?xml version="1.0" encoding="UTF-8" standalone="no"?>
<svg
   version="1.1"
   viewBox="0 0 512 512"
   xmlns="http://www.w3.org/2000/svg"
   xmlns:svg="http://www.w3.org/2000/svg">
  <path
     d="M 339.07183,256.00001 463.66713,131.4047 c 15.28961,-15.2896 15.28961,-40.079175 0,-55.381227 l -27.6906,-27.690611 c -15.28961,-15.289602 -40.07917,-15.289602 -55.38123,0 L 256,172.92818 131.4047,48.332862 c -15.2896,-15.289602 -40.079177,-15.289602 -55.381228,0 L 48.332861,76.023473 c -15.2896,15.2896 -15.2896,40.079177 0,55.381227 L 172.92815,256.00001 48.332861,380.59531 c -15.2896,15.2896 -15.2896,40.07917 0,55.38123 l 27.690611,27.69061 c 15.289601,15.28959 40.091628,15.28959 55.381228,0 L 256,339.07184 380.5953,463.66715 c 15.2896,15.28959 40.09162,15.28959 55.38123,0 l 27.6906,-27.69061 c 15.28961,-15.2896 15.28961,-40.07918 0,-55.38123 z"
     fill="currentColor" />
</svg>
